<svg xmlns="http://www.w3.org/2000/svg" width="512" height="512" class="icon" viewBox="0 0 1024 1024"><path fill="#727272" d="M109.696 310.848v603.456h603.456V310.848zM76.16 243.84h670.528a32.64 32.64 0 0 1 24.064 9.408 32.64 32.64 0 0 1 9.408 24.064V947.84a32.64 32.64 0 0 1-9.408 24.064 32.64 32.64 0 0 1-24.064 9.408H76.16a32.64 32.64 0 0 1-24.064-9.408 32.64 32.64 0 0 1-9.408-24.064V277.312a32.64 32.64 0 0 1 9.408-24.064 32.64 32.64 0 0 1 24.064-9.408M981.312 76.16v737.536a32.64 32.64 0 0 1-9.408 24.128 32.64 32.64 0 0 1-24.064 9.408H847.232V780.16h67.072V109.696H377.92v67.072h-67.072V76.16a32.64 32.64 0 0 1 9.408-24.064 32.64 32.64 0 0 1 24.128-9.408H947.84a32.64 32.64 0 0 1 24.064 9.408 32.64 32.64 0 0 1 9.408 24.064M243.84 679.68h335.232v67.072H243.84zm0-201.152h335.232V545.6H243.84v-67.136z"/></svg>